<svg xmlns="http://www.w3.org/2000/svg" xmlns:xlink="http://www.w3.org/1999/xlink" width="500" zoomAndPan="magnify" viewBox="0 0 375 374.999991" height="500" preserveAspectRatio="xMidYMid meet" version="1.0"><defs><g/></defs><rect x="-37.5" width="450" fill="#ffffff" y="-37.499999" height="449.999989" fill-opacity="1"/><rect x="-37.5" width="450" fill="#ffffff" y="-37.499999" height="449.999989" fill-opacity="1"/><rect x="-37.5" width="450" fill="#000000" y="-37.499999" height="449.999989" fill-opacity="1"/><g fill="#ffffff" fill-opacity="1"><g transform="translate(138.924663, 259.499983)"><g><path d="M 153.632812 -166.941406 C 150.488281 -167.90625 147.828125 -168.632812 145.40625 -168.632812 C 137.664062 -168.632812 130.648438 -158.472656 127.261719 -152.421875 C 118.308594 -137.179688 111.777344 -120.488281 105.246094 -104.035156 C 104.761719 -102.824219 103.792969 -101.132812 102.582031 -100.648438 C 96.050781 -97.019531 89.277344 -93.632812 82.261719 -90.003906 C 82.261719 -91.210938 82.019531 -92.179688 82.503906 -93.148438 C 87.097656 -102.101562 88.066406 -112.019531 89.761719 -121.695312 C 91.695312 -131.375 91.695312 -141.050781 90.246094 -150.972656 C 88.792969 -160.40625 77.179688 -170.328125 68.710938 -170.328125 C 63.632812 -170.085938 58.308594 -170.085938 53.710938 -168.875 C 37.742188 -164.277344 28.792969 -152.183594 22.5 -137.664062 C 20.808594 -133.308594 21.289062 -128.472656 24.4375 -124.359375 C 25.402344 -123.148438 26.371094 -121.9375 27.824219 -121.9375 C 28.308594 -121.9375 28.792969 -122.179688 29.515625 -122.421875 C 26.128906 -129.679688 26.371094 -136.9375 31.210938 -143.714844 C 38.46875 -153.632812 47.179688 -164.277344 60.484375 -164.277344 C 65.082031 -164.277344 67.742188 -162.34375 68.953125 -157.988281 C 69.195312 -156.777344 69.195312 -155.570312 69.4375 -154.359375 C 71.371094 -140.085938 70.40625 -125.566406 66.777344 -111.535156 C 63.871094 -99.921875 60.242188 -88.792969 56.613281 -77.421875 C 56.128906 -75.96875 54.4375 -74.277344 52.742188 -73.308594 C 47.179688 -70.164062 41.613281 -67.261719 35.808594 -64.113281 C 23.953125 -57.339844 13.066406 -49.113281 5.804688 -37.015625 C 1.210938 -29.03125 -1.695312 -20.566406 1.210938 -10.886719 C 3.386719 -2.417969 6.53125 -0.726562 15 -0.726562 C 32.421875 -1.933594 46.695312 -8.710938 55.648438 -24.921875 C 63.632812 -39.4375 69.679688 -54.921875 75.484375 -70.40625 C 77.421875 -74.761719 77.90625 -80.082031 80.808594 -83.710938 C 83.710938 -87.097656 89.035156 -89.035156 93.148438 -91.453125 C 95.808594 -92.90625 98.710938 -94.117188 102.582031 -96.050781 C 99.921875 -86.132812 97.746094 -77.179688 95.324219 -68.46875 C 90.246094 -49.113281 87.582031 -29.515625 87.824219 -9.4375 C 87.824219 6.773438 101.375 17.179688 116.859375 17.179688 C 118.792969 17.179688 120.730469 16.695312 121.695312 14.03125 C 122.90625 10.402344 119.519531 9.195312 117.34375 7.257812 C 112.261719 3.144531 108.875 -2.175781 108.632812 -8.953125 C 108.390625 -24.4375 109.601562 -39.921875 113.230469 -54.921875 C 117.585938 -72.582031 122.664062 -90.246094 127.019531 -107.90625 C 127.988281 -111.292969 129.199219 -113.714844 131.859375 -115.648438 C 142.988281 -124.601562 150.003906 -136.457031 155.085938 -149.519531 C 156.535156 -153.390625 156.535156 -157.988281 157.019531 -162.101562 C 157.503906 -164.519531 155.8125 -166.214844 153.632812 -166.941406 Z M 14.515625 -7.742188 C 6.53125 -17.417969 9.675781 -26.613281 14.273438 -35.566406 C 20.808594 -48.148438 36.292969 -58.550781 48.386719 -65.808594 C 49.597656 -66.777344 51.292969 -67.503906 53.226562 -68.46875 C 48.386719 -52.984375 43.550781 -38.226562 36.292969 -24.679688 C 31.695312 -15.484375 24.679688 -9.917969 14.515625 -7.742188 Z M 147.34375 -147.585938 C 143.957031 -140.328125 139.601562 -133.308594 135.488281 -126.292969 C 134.761719 -124.84375 133.308594 -123.875 132.34375 -122.421875 C 131.859375 -122.664062 131.617188 -122.90625 131.132812 -123.148438 C 135.003906 -137.421875 136.9375 -152.183594 147.585938 -164.761719 C 148.550781 -162.828125 149.761719 -161.617188 149.761719 -160.648438 C 149.035156 -156.292969 149.277344 -151.699219 147.34375 -147.585938 Z M 147.34375 -147.585938 "/></g></g></g><g fill="#db0606" fill-opacity="1"><g transform="translate(72.987633, 247.141162)"><g><path d="M 128.664062 -10.15625 C 129.0625 -13.542969 129.261719 -16.332031 129.859375 -18.921875 C 130.058594 -20.714844 130.65625 -22.308594 130.855469 -24.097656 C 133.046875 -34.855469 135.039062 -45.808594 137.226562 -56.5625 C 138.421875 -61.941406 139.816406 -67.320312 141.011719 -72.496094 C 142.207031 -77.675781 140.8125 -82.457031 138.222656 -86.839844 C 136.03125 -90.820312 132.847656 -92.414062 128.265625 -92.414062 C 122.488281 -92.414062 117.910156 -90.421875 113.726562 -86.441406 C 111.535156 -84.050781 108.746094 -82.457031 106.15625 -80.464844 C 106.953125 -81.261719 107.152344 -82.65625 107.550781 -84.25 C 108.347656 -87.832031 109.34375 -91.617188 110.339844 -95.402344 C 111.734375 -101.777344 110.9375 -107.75 106.953125 -113.328125 C 103.964844 -117.3125 101.179688 -118.507812 96.398438 -118.507812 C 93.808594 -118.109375 91.21875 -117.910156 88.628906 -117.710938 C 85.644531 -117.710938 83.253906 -116.515625 81.460938 -114.324219 C 77.875 -109.941406 74.289062 -105.757812 70.90625 -101.378906 C 68.515625 -98.191406 66.722656 -94.804688 64.53125 -91.019531 C 64.730469 -93.410156 64.929688 -95.203125 65.328125 -96.796875 C 67.71875 -105.359375 66.324219 -113.726562 63.335938 -121.890625 C 58.355469 -135.039062 46.804688 -139.21875 33.859375 -139.21875 C 20.914062 -139.21875 9.757812 -135.238281 2.789062 -123.683594 C -0.796875 -117.511719 -0.796875 -111.734375 2.191406 -105.757812 C 5.179688 -99.386719 7.769531 -98.191406 14.339844 -98.191406 C 17.328125 -98.191406 20.316406 -98.589844 23.105469 -99.1875 C 29.277344 -100.78125 32.863281 -106.554688 32.464844 -112.730469 C 32.265625 -116.515625 30.472656 -118.507812 27.683594 -118.507812 C 26.6875 -118.507812 25.492188 -118.308594 24.097656 -117.710938 C 24.097656 -116.117188 24.097656 -114.523438 24.097656 -112.929688 C 23.902344 -108.746094 22.308594 -105.160156 18.324219 -103.171875 C 17.328125 -102.574219 15.933594 -102.175781 14.539062 -102.175781 C 13.941406 -102.175781 13.34375 -102.375 12.945312 -102.574219 C 7.570312 -106.554688 4.78125 -113.328125 7.96875 -119.503906 C 13.742188 -131.652344 21.710938 -134.640625 34.457031 -134.640625 C 44.414062 -134.242188 51.585938 -126.074219 51.1875 -117.3125 C 50.789062 -106.355469 48.398438 -96 45.410156 -85.644531 C 43.617188 -79.667969 41.027344 -73.890625 39.039062 -67.917969 C 32.863281 -49.792969 26.6875 -31.667969 20.117188 -13.542969 C 19.320312 -11.351562 19.71875 -9.957031 21.3125 -8.363281 C 23.105469 -6.574219 25.492188 -5.777344 27.683594 -5.777344 C 31.46875 -5.777344 35.253906 -7.96875 36.847656 -11.550781 C 39.238281 -16.730469 41.226562 -21.910156 43.617188 -27.085938 C 47.800781 -36.847656 52.183594 -46.804688 56.761719 -56.5625 C 61.542969 -66.921875 66.722656 -77.277344 71.105469 -87.832031 C 73.492188 -93.808594 85.046875 -113.527344 92.414062 -113.527344 C 93.410156 -113.527344 94.40625 -113.328125 95.402344 -112.929688 C 95.402344 -112.132812 95.402344 -111.136719 95.402344 -110.539062 C 93.808594 -102.375 92.214844 -94.207031 90.421875 -86.042969 C 89.226562 -80.265625 88.230469 -74.6875 86.441406 -69.113281 C 84.648438 -63.335938 82.058594 -57.757812 79.867188 -52.183594 C 78.671875 -48.796875 77.675781 -45.410156 76.679688 -42.023438 C 75.484375 -38.242188 77.078125 -36.050781 80.863281 -35.652344 C 87.039062 -35.652344 90.421875 -38.441406 93.011719 -44.214844 C 95.800781 -50.988281 99.785156 -56.960938 104.363281 -62.539062 C 109.542969 -68.515625 114.324219 -74.6875 119.105469 -81.0625 C 120.097656 -82.257812 121.09375 -82.855469 122.289062 -82.855469 C 123.085938 -82.855469 124.082031 -82.457031 125.078125 -81.859375 C 124.28125 -77.277344 123.882812 -72.695312 122.6875 -68.117188 C 119.105469 -54.375 115.917969 -40.828125 113.925781 -26.6875 C 113.527344 -22.90625 113.328125 -19.121094 114.523438 -15.335938 C 116.117188 -9.160156 122.289062 -5.378906 128.464844 -5.378906 C 130.457031 -5.378906 132.648438 -5.777344 134.441406 -6.773438 C 140.613281 -9.757812 144.398438 -14.9375 147.785156 -20.316406 C 148.980469 -22.109375 150.175781 -24.496094 148.382812 -27.085938 C 141.011719 -22.507812 137.824219 -13.542969 128.664062 -10.15625 Z M 128.664062 -10.15625 "/></g></g></g></svg>